<svg id="Layer_1" data-name="Layer 1" xmlns="http://www.w3.org/2000/svg" width="82.17" height="82.17" viewBox="0 0 82.17 82.17"><defs><style>.cls-1{fill:#f7931e;}</style></defs><title>bid</title><path class="cls-1" d="M79.76,43.49h-12V2.41A2.41,2.41,0,0,0,65.32,0H16.81a2.41,2.41,0,0,0-1.66.7h0L0.71,15.15h0A2.43,2.43,0,0,0,0,16.58v0.06c0,0.06,0,.11,0,0.17s0,0,0,0V72.54a9.64,9.64,0,0,0,9.63,9.63H72.54a9.64,9.64,0,0,0,9.63-9.63V45.9a2.41,2.41,0,0,0-2.41-2.41h0ZM14.44,8.22v6.23H8.22ZM9.63,77.36a4.82,4.82,0,0,1-4.81-4.81V19.26h12a2.41,2.41,0,0,0,2.41-2.41v-12H62.91V72.54a9.62,9.62,0,0,0,1.29,4.81H9.63Zm67.73-4.81a4.81,4.81,0,0,1-9.63,0V48.31h9.63V72.54Zm0,0"/><path class="cls-1" d="M31.3,29H12a2.41,2.41,0,0,0-2.41,2.41V50.72A2.41,2.41,0,0,0,12,53.12H31.3a2.41,2.41,0,0,0,2.41-2.41V31.46A2.41,2.41,0,0,0,31.3,29h0ZM28.89,48.31H14.44V33.86H28.89V48.31Zm0,0"/><path class="cls-1" d="M55.53,57.94H12a2.41,2.41,0,0,0,0,4.81H55.53a2.41,2.41,0,1,0,0-4.81h0Zm0,0"/><path class="cls-1" d="M55.53,67.73H12a2.41,2.41,0,0,0,0,4.81H55.53a2.41,2.41,0,1,0,0-4.81h0Zm0,0"/><path class="cls-1" d="M55.53,29H41.09a2.41,2.41,0,0,0,0,4.81H55.53a2.41,2.41,0,0,0,0-4.81h0Zm0,0"/><path class="cls-1" d="M55.53,38.68H41.09a2.41,2.41,0,0,0,0,4.81H55.53a2.41,2.41,0,0,0,0-4.81h0Zm0,0"/><path class="cls-1" d="M55.53,48.31H41.09a2.41,2.41,0,0,0,0,4.81H55.53a2.41,2.41,0,1,0,0-4.81h0Zm0,0"/><path class="cls-1" d="M55.53,9.63h-29A2.41,2.41,0,0,0,24.07,12v9.63a2.41,2.41,0,0,0,2.41,2.41h29a2.41,2.41,0,0,0,2.41-2.41V12a2.41,2.41,0,0,0-2.41-2.41h0Zm-2.41,9.63H28.89V14.44H53.12v4.81Zm0,0"/></svg>