<svg id="Layer_1" data-name="Layer 1" xmlns="http://www.w3.org/2000/svg" width="82.17" height="82.17" viewBox="0 0 82.17 82.17"><defs><style>.cls-1{fill:#f7931e;}</style></defs><title>composition</title><path class="cls-1" d="M79.76,14.6a2.41,2.41,0,0,0,2.41-2.41V2.41A2.41,2.41,0,0,0,79.76,0H70a2.41,2.41,0,0,0-2.41,2.41,2.41,2.41,0,0,1-4.81,0A2.41,2.41,0,0,0,60.35,0H45.9a2.41,2.41,0,0,0-2.41,2.41,2.41,2.41,0,0,1-4.81,0A2.41,2.41,0,0,0,36.27,0H21.83a2.41,2.41,0,0,0-2.41,2.41,2.41,2.41,0,0,1-4.81,0A2.41,2.41,0,0,0,12.2,0H2.41A2.41,2.41,0,0,0,0,2.41V12.2A2.41,2.41,0,0,0,2.41,14.6a2.41,2.41,0,1,1,0,4.81A2.41,2.41,0,0,0,0,21.83V36.27a2.41,2.41,0,0,0,2.41,2.41,2.41,2.41,0,1,1,0,4.81A2.41,2.41,0,0,0,0,45.9V60.35a2.41,2.41,0,0,0,2.41,2.41,2.41,2.41,0,1,1,0,4.81A2.41,2.41,0,0,0,0,70v9.79a2.41,2.41,0,0,0,2.41,2.41H12.2a2.41,2.41,0,0,0,2.41-2.41,2.41,2.41,0,0,1,4.81,0,2.41,2.41,0,0,0,2.41,2.41H36.27a2.41,2.41,0,0,0,2.41-2.41,2.41,2.41,0,0,1,4.81,0,2.41,2.41,0,0,0,2.41,2.41H60.35a2.41,2.41,0,0,0,2.41-2.41,2.41,2.41,0,1,1,4.81,0A2.41,2.41,0,0,0,70,82.17h9.79a2.41,2.41,0,0,0,2.41-2.41V70a2.41,2.41,0,0,0-2.41-2.41,2.41,2.41,0,1,1,0-4.81,2.41,2.41,0,0,0,2.41-2.41V45.9a2.41,2.41,0,0,0-2.41-2.41,2.41,2.41,0,1,1,0-4.81,2.41,2.41,0,0,0,2.41-2.41V21.83a2.41,2.41,0,0,0-2.41-2.41,2.41,2.41,0,1,1,0-4.81h0Zm-2.41-4.4a7.22,7.22,0,0,0,0,13.62V34.28a7.22,7.22,0,0,0,0,13.62V58.35a7.22,7.22,0,0,0,0,13.62v5.39H72a7.22,7.22,0,0,0-13.62,0H47.9a7.22,7.22,0,0,0-13.62,0H23.82a7.22,7.22,0,0,0-13.62,0H4.81V72a7.22,7.22,0,0,0,0-13.62V47.9a7.22,7.22,0,0,0,0-13.62V23.82a7.22,7.22,0,0,0,0-13.62V4.81H10.2a7.22,7.22,0,0,0,13.62,0H34.28a7.22,7.22,0,0,0,13.62,0H58.35A7.22,7.22,0,0,0,72,4.81h5.39V10.2Zm0,0"/><path class="cls-1" d="M41.09,24.23a7.22,7.22,0,1,0,7.22,7.22,7.23,7.23,0,0,0-7.22-7.22h0Zm0,9.63a2.41,2.41,0,1,1,2.41-2.41,2.41,2.41,0,0,1-2.41,2.41h0Zm0,0"/><path class="cls-1" d="M65.16,14.6H17A2.41,2.41,0,0,0,14.6,17V65.16A2.41,2.41,0,0,0,17,67.57H65.16a2.41,2.41,0,0,0,2.41-2.41V17a2.41,2.41,0,0,0-2.41-2.41h0ZM19.42,62.75V55.39L31.61,44.21,38.8,49.6,25.64,62.75H19.42Zm43.33,0H32.45L55.53,39.68l7.22,7.22V62.75Zm0-22.66-5.52-5.52a2.41,2.41,0,0,0-3.41,0L42.24,46.16l-9.33-7a2.41,2.41,0,0,0-3.07.15L19.42,48.85V19.42H62.75V40.09Zm0,0"/></svg>