<svg id="Layer_1" data-name="Layer 1" xmlns="http://www.w3.org/2000/svg" width="86.37" height="86.37" viewBox="0 0 86.37 86.37"><defs><style>.cls-1{fill:#f7931e;}</style></defs><title>dealer</title><path class="cls-1" d="M81.19,5.18a17.74,17.74,0,0,0-25.05,0l-25.9,25.9L5.18,56.13A17.72,17.72,0,0,0,30.23,81.19L55.29,56.13l25.9-25.9a17.74,17.74,0,0,0,0-25.05h0ZM26.66,77.61a12.65,12.65,0,0,1-17.9-17.9L33.81,34.66a12.65,12.65,0,0,1,14.32-2.52l0.06,0a12.72,12.72,0,0,1,5.13,4.46l-3.7,3.7a7.6,7.6,0,0,0-12.22-2.09L12.34,63.29A7.59,7.59,0,0,0,23.08,74L36.8,60.3a17.72,17.72,0,0,0,6,1h0.18ZM44.55,45.4a2.53,2.53,0,1,1,0-3.58,2.53,2.53,0,0,1,0,3.58h0ZM32.15,57.8L19.5,70.45a2.53,2.53,0,0,1-3.58-3.58L28.57,54.22a17.77,17.77,0,0,0,3.58,3.58h0ZM77.61,26.66l-25.9,25.9a12.66,12.66,0,0,1-17.9,0,12.77,12.77,0,0,1-1.61-2l3.71-3.71A7.59,7.59,0,0,0,48.13,49L74,23.08A7.59,7.59,0,0,0,63.29,12.34L48.72,26.91a17.69,17.69,0,0,0-6.14-1L59.71,8.76a12.65,12.65,0,0,1,17.9,17.9h0ZM53.37,29.42l13.5-13.5a2.53,2.53,0,1,1,3.58,3.58L56.95,33a17.75,17.75,0,0,0-3.58-3.58h0Zm0,0"/><path class="cls-1" d="M73.18,70.45L66,63.29a2.53,2.53,0,0,0-3.58,3.58L69.6,74a2.53,2.53,0,0,0,3.58-3.58h0Zm0,0"/><path class="cls-1" d="M79.35,55.52L68.62,51.94a2.53,2.53,0,1,0-1.6,4.8l10.74,3.58a2.53,2.53,0,0,0,1.6-4.8h0Zm0,0"/><path class="cls-1" d="M59.48,78.6L55.9,67.86a2.53,2.53,0,0,0-4.8,1.6L54.68,80.2a2.53,2.53,0,1,0,4.8-1.6h0Zm0,0"/><path class="cls-1" d="M23.08,20.34l-7.16-7.16a2.53,2.53,0,0,0-3.58,3.58l7.16,7.16a2.53,2.53,0,0,0,3.58-3.58h0Zm0,0"/><path class="cls-1" d="M34.42,17.75L30.85,7A2.53,2.53,0,1,0,26,8.62l3.58,10.74a2.53,2.53,0,0,0,4.8-1.6h0Zm0,0"/><path class="cls-1" d="M18.51,30.47L7.77,26.89a2.53,2.53,0,1,0-1.6,4.8l10.74,3.58a2.53,2.53,0,0,0,1.6-4.8h0Zm0,0"/></svg>