<svg id="Layer_1" data-name="Layer 1" xmlns="http://www.w3.org/2000/svg" width="82.17" height="82.17" viewBox="0 0 82.17 82.17"><defs><style>.cls-1{fill:#f7931e;}</style></defs><title>departure</title><path class="cls-1" d="M80.61,24.23L59,16.1a16.85,16.85,0,0,0-33.66-.16,14.14,14.14,0,0,0,1.25,7.19L3.26,14.28A2.41,2.41,0,0,0,0,16.54V69.82a2.41,2.41,0,0,0,1.56,2.25L27.88,82h0a2.44,2.44,0,0,0,1.7,0l24.67-9.31L78.91,82a2.41,2.41,0,0,0,3.26-2.25V26.48a2.41,2.41,0,0,0-1.56-2.25h0ZM26.32,76.28L4.81,68.16V20l21.51,8.13V76.28Zm25.52-7.81-20.7,7.81V30.9c2.17,3.38,5.07,7.77,9,14a2.41,2.41,0,0,0,4.05,0c3.17-5,5.7-8.8,7.6-11.72V68.47Zm2.4-50.88s0,0.07,0,.1c-0.16,3.83-1.86,5.7-12,21.44C31.05,21.84,29.94,20.9,30.19,16.2h0a12,12,0,0,1,24.05.66c0,0.26,0,.5,0,0.74h0ZM77.36,76.28l-20.7-7.81v-43a19.88,19.88,0,0,0,1.91-4.38l18.8,7.09V76.28Zm0,0"/><path class="cls-1" d="M42.21,9.63a7.22,7.22,0,1,0,7.22,7.22,7.23,7.23,0,0,0-7.22-7.22h0Zm0,9.63a2.41,2.41,0,1,1,2.41-2.41,2.41,2.41,0,0,1-2.41,2.41h0Zm0,0"/></svg>