<svg id="Layer_1" data-name="Layer 1" xmlns="http://www.w3.org/2000/svg" width="86.37" height="86.37" viewBox="0 0 86.37 86.37"><defs><style>.cls-1{fill:#f7931e;}</style></defs><title>equipment</title><path class="cls-1" d="M54.24,25.33A16.3,16.3,0,0,0,58.36,14.9s0-.09,0-0.14A15.18,15.18,0,1,0,31.9,25.34,17.73,17.73,0,0,0,15.35,43V53.14a2.53,2.53,0,0,0,2.53,2.53H68.49A2.53,2.53,0,0,0,71,53.14V43A17.74,17.74,0,0,0,54.24,25.33h0ZM43.18,5.06A10.06,10.06,0,0,1,53.3,14.83C53.12,20.42,48.94,25,43.76,25.29a10.12,10.12,0,1,1-.58-20.22h0ZM66,50.61H60.9V43a2.53,2.53,0,0,0-5.06,0v7.59H30.53V43a2.53,2.53,0,1,0-5.06,0v7.59H20.41V43A12.67,12.67,0,0,1,33.06,30.36H53.31A12.67,12.67,0,0,1,66,43v7.59Zm0,0"/><path class="cls-1" d="M73.72,61.07H12.65a12.65,12.65,0,0,0,0,25.3H73.72a12.65,12.65,0,0,0,0-25.3h0Zm0,20.24H12.65a7.59,7.59,0,0,1,0-15.18H73.72a7.59,7.59,0,1,1,0,15.18h0Zm0,0"/><path class="cls-1" d="M22.77,71.19H17.71a2.53,2.53,0,0,0,0,5.06h5.06a2.53,2.53,0,1,0,0-5.06h0Zm0,0"/><path class="cls-1" d="M38.12,71.19H33.06a2.53,2.53,0,0,0,0,5.06h5.06a2.53,2.53,0,0,0,0-5.06h0Zm0,0"/><path class="cls-1" d="M53.31,71.19H48.25a2.53,2.53,0,1,0,0,5.06h5.06a2.53,2.53,0,0,0,0-5.06h0Zm0,0"/><path class="cls-1" d="M68.66,71.19H63.6a2.53,2.53,0,1,0,0,5.06h5.06a2.53,2.53,0,1,0,0-5.06h0Zm0,0"/></svg>