<svg id="Layer_1" data-name="Layer 1" xmlns="http://www.w3.org/2000/svg" width="48.5" height="85.3" viewBox="0 0 48.5 85.3"><defs><style>.cls-1{fill:#f7931e;}</style></defs><title>furn</title><path class="cls-1" d="M37.29,22a61,61,0,0,1-13,1.26,61,61,0,0,1-13-1.26c-4-.91-5.37-2-5.6-2.4,0.05-6,6.64-12.63,15.84-13.78v8.63a2.8,2.8,0,1,0,5.61,0V5.78c9.2,1.15,15.79,7.77,15.84,13.78-0.23.37-1.63,1.48-5.6,2.4h0Zm-13,57.4-5-5.93V71.7l10.09-3v4.76l-5,5.93h0Zm5-48.22-10.09,3V28.88H29.29v2.26h0ZM19.21,61.19C23.05,60,26.1,59,29.29,58.08v4.73l-10.09,3V61.19h0Zm0-10.61,10.09-3v4.69c-3.36,1-6.72,2-10,3l-0.11,0V50.58h0Zm0-10.55,10.09-3v4.7l-10.09,3V40h0Zm22-34.19A26.93,26.93,0,0,0,24.25,0,26.93,26.93,0,0,0,7.32,5.84C2.67,9.61,0,14.63,0,19.63c0,5.65,8,7.64,13.6,8.47V73.65a5,5,0,0,0,1.19,3.24l5.65,6.65a5,5,0,0,0,7.61,0l5.65-6.65a5,5,0,0,0,1.19-3.24V28.09c5.59-.83,13.6-2.81,13.6-8.47,0-5-2.67-10-7.32-13.79h0Z"/></svg>