<svg id="Layer_1" data-name="Layer 1" xmlns="http://www.w3.org/2000/svg" width="86.37" height="86.37" viewBox="0 0 86.37 86.37"><defs><style>.cls-1{fill:#f7931e;}</style></defs><title>furniture</title><path class="cls-1" d="M84.43,35.66l-4.29-1a37.44,37.44,0,0,0-4.77-11.54l2.19-3.65a2.53,2.53,0,0,0-.38-3.09L70,9.19a2.53,2.53,0,0,0-3.09-.38L63.28,11A37.45,37.45,0,0,0,51.75,6.23l-1-4.29A2.53,2.53,0,0,0,48.25,0H38.12a2.53,2.53,0,0,0-2.46,1.93l-1,4.29A37.47,37.47,0,0,0,23.08,11L19.44,8.81a2.53,2.53,0,0,0-3.09.38L9.19,16.35a2.53,2.53,0,0,0-.38,3.09L11,23.08A37.47,37.47,0,0,0,6.23,34.62l-4.29,1A2.53,2.53,0,0,0,0,38.12V48.25A2.53,2.53,0,0,0,1.93,50.7l4.29,1A37.47,37.47,0,0,0,11,63.28L8.81,66.93A2.53,2.53,0,0,0,9.19,70l7.16,7.16a2.53,2.53,0,0,0,3.09.38l3.65-2.19a37.44,37.44,0,0,0,11.54,4.77l1,4.29a2.53,2.53,0,0,0,2.46,1.93H48.25a2.53,2.53,0,0,0,2.46-1.93l1-4.29a37.43,37.43,0,0,0,11.54-4.77l3.65,2.19A2.53,2.53,0,0,0,70,77.18L77.18,70a2.53,2.53,0,0,0,.38-3.09l-2.19-3.65a37.43,37.43,0,0,0,4.77-11.54l4.29-1a2.53,2.53,0,0,0,1.93-2.46V38.12a2.53,2.53,0,0,0-1.93-2.46h0ZM81.31,46.25l-3.92,1a2.53,2.53,0,0,0-1.89,2,32.52,32.52,0,0,1-5.2,12.59,2.53,2.53,0,0,0-.08,2.74l2,3.32L67.84,72.2l-3.32-2a2.53,2.53,0,0,0-2.74.08A32.5,32.5,0,0,1,49.2,75.5a2.53,2.53,0,0,0-2,1.89l-1,3.92H40.11l-1-3.92a2.53,2.53,0,0,0-2-1.89,32.52,32.52,0,0,1-12.59-5.2,2.53,2.53,0,0,0-2.74-.08l-3.32,2-4.36-4.36,2-3.32a2.53,2.53,0,0,0-.08-2.74,32.51,32.51,0,0,1-5.2-12.59,2.53,2.53,0,0,0-1.89-2l-3.91-1V40.11l3.91-1a2.53,2.53,0,0,0,1.89-2,32.52,32.52,0,0,1,5.2-12.59,2.53,2.53,0,0,0,.08-2.74l-2-3.32,4.36-4.36,3.32,2a2.53,2.53,0,0,0,2.74-.08,32.52,32.52,0,0,1,12.59-5.2,2.53,2.53,0,0,0,2-1.89l1-3.91h6.14l1,3.91a2.53,2.53,0,0,0,2,1.89,32.5,32.5,0,0,1,12.59,5.2,2.53,2.53,0,0,0,2.74.08l3.32-2,4.36,4.36-2,3.32a2.53,2.53,0,0,0,.08,2.74,32.52,32.52,0,0,1,5.2,12.59,2.53,2.53,0,0,0,1.89,2l3.92,1v6.14Zm0,0"/><path class="cls-1" d="M43.18,15.35A27.83,27.83,0,1,0,71,43.18,27.87,27.87,0,0,0,43.18,15.35h0Zm0,50.61A22.77,22.77,0,1,1,66,43.18,22.8,22.8,0,0,1,43.18,66h0Zm0,0"/><path class="cls-1" d="M43.18,25.47A17.71,17.71,0,1,0,60.9,43.18,17.73,17.73,0,0,0,43.18,25.47h0Zm0,30.36A12.65,12.65,0,1,1,55.84,43.18,12.67,12.67,0,0,1,43.18,55.84h0Zm0,0"/></svg>