<svg id="Layer_1" data-name="Layer 1" xmlns="http://www.w3.org/2000/svg" width="86.75" height="86.76" viewBox="0 0 86.75 86.76"><defs><style>.cls-1{fill:#1eb5f7;}</style></defs><title>house_blue</title><path class="cls-1" d="M84.21,81.68H76.58V45.32a7.62,7.62,0,0,0,7.5-13L48.34,1.85a7.59,7.59,0,0,0-9.92,0L2.67,32.34a7.62,7.62,0,0,0,7.5,13V81.68H2.54a2.54,2.54,0,0,0,0,5.08H84.21a2.54,2.54,0,0,0,0-5.08h0ZM9.28,40.06A2.54,2.54,0,0,1,6,36.21L41.72,5.71a2.53,2.53,0,0,1,3.31,0L80.78,36.2a2.54,2.54,0,1,1-3.31,3.85L45,12.4a2.54,2.54,0,0,0-3.3,0L9.28,40.06h0ZM35.75,81.68H25.59V56.09H35.75V81.68Zm35.75,0H40.83V53.55A2.54,2.54,0,0,0,38.29,51H23a2.54,2.54,0,0,0-2.54,2.54V81.68H15.25v-40l28.12-24,28.12,24v40Zm0,0"/><path class="cls-1" d="M63.71,51H48.46a2.54,2.54,0,0,0-2.54,2.54V68.8a2.54,2.54,0,0,0,2.54,2.54H63.71a2.54,2.54,0,0,0,2.54-2.54V53.55A2.54,2.54,0,0,0,63.71,51h0ZM61.17,66.26H51V56.09H61.17V66.26Zm0,0"/><path class="cls-1" d="M43.38,25.43A7.62,7.62,0,1,0,51,33.05a7.63,7.63,0,0,0-7.62-7.62h0Zm0,10.17a2.54,2.54,0,1,1,2.54-2.54,2.54,2.54,0,0,1-2.54,2.54h0Zm0,0"/></svg>