<svg id="Layer_1" data-name="Layer 1" xmlns="http://www.w3.org/2000/svg" width="85.3" height="85.3" viewBox="0 0 85.3 85.3"><defs><style>.cls-1{fill:#f7931e;}</style></defs><title>kromki</title><path class="cls-1" d="M79.71,79.34a0.37,0.37,0,0,1-.37.37H73.75V77.1a2.79,2.79,0,0,0-5.59,0v2.61H64.11V73.19a2.79,2.79,0,0,0-5.59,0v6.52H54.47V77.1a2.79,2.79,0,0,0-5.59,0v2.61H44.84V73.19a2.79,2.79,0,0,0-5.59,0v6.52H35.2V77.1a2.79,2.79,0,0,0-5.59,0v2.61h-5.4v-13H79.34a0.37,0.37,0,0,1,.37.37V79.34h0Zm-74.12,0V6A0.37,0.37,0,0,1,6,5.59H18.25a0.37,0.37,0,0,1,.37.37V79.71H6a0.37,0.37,0,0,1-.37-0.37h0ZM79.34,61.09H24.21V6a6,6,0,0,0-6-6H6A6,6,0,0,0,0,6V79.34a6,6,0,0,0,6,6H79.34a6,6,0,0,0,6-6V67a6,6,0,0,0-6-6h0Z"/><path class="cls-1" d="M12.11,8.57a3.54,3.54,0,1,1-3.54,3.54,3.54,3.54,0,0,1,3.54-3.54h0Z"/></svg>