<svg id="Layer_1" data-name="Layer 1" xmlns="http://www.w3.org/2000/svg" width="39.14" height="34.01" viewBox="0 0 39.14 34.01"><defs><style>.cls-1{fill:#1eb5f7;}</style></defs><title>main_logo</title><path class="cls-1" d="M38.88,11C30.43-.3,31,0.48,30.9.36A1.3,1.3,0,0,0,30,0H9.13a1.32,1.32,0,0,0-1,.52L0.26,11A1.31,1.31,0,0,0,.32,12.6l18.26,21h0a1.31,1.31,0,0,0,2,0l18.26-21A1.31,1.31,0,0,0,38.88,11h0ZM28.2,2.61L26.35,8.17,22.18,2.61h6Zm-3.41,7.83H14.35l5.22-7ZM17,2.61L12.79,8.17,10.94,2.61h6ZM8.68,4.08l2.11,6.36H3.91ZM4.17,13h7.49l4.62,13.9Zm15.4,15.52L14.41,13H24.73Zm3.29-1.63L27.48,13H35Zm5.49-16.5,2.11-6.36,4.77,6.36H28.35Zm0,0"/></svg>