<svg id="Layer_1" data-name="Layer 1" xmlns="http://www.w3.org/2000/svg" xmlns:xlink="http://www.w3.org/1999/xlink" width="227.08" height="58.54" viewBox="0 0 227.08 58.54"><defs><style>.cls-1,.cls-2{fill:#c9373e;}.cls-2{stroke:#fff;stroke-miterlimit:10;}.cls-3{fill:#a73d42;}.cls-4{fill:#1c1c1c;}.cls-5{fill:#fff;}.cls-6{fill:url(#linear-gradient);}</style><linearGradient id="linear-gradient" x1="40.04" y1="10.26" x2="40.04" y2="26.76" gradientUnits="userSpaceOnUse"><stop offset="0" stop-color="#fff" stop-opacity="0.8"/><stop offset="0.67" stop-color="#fff" stop-opacity="0"/></linearGradient></defs><title>mebel_logo</title><circle class="cls-1" cx="39.9" cy="29.27" r="29.27"/><circle class="cls-2" cx="39.9" cy="29.27" r="21.1"/><path class="cls-3" d="M29.73,17.79H18.88a1.6,1.6,0,0,0-1.47,1.14l-1.79,6.38-1.79-6.38a1.6,1.6,0,0,0-1.47-1.14H1.27A1.27,1.27,0,0,0,0,19.06V41.52a1.27,1.27,0,0,0,1.27,1.27H7.73A1.27,1.27,0,0,0,9,41.52V32.15l2.66,9.51a1.6,1.6,0,0,0,1.47,1.14h5a1.6,1.6,0,0,0,1.47-1.14L22,33v8.48a1.27,1.27,0,0,0,1.27,1.27h6.46A1.27,1.27,0,0,0,31,41.52V19.06A1.27,1.27,0,0,0,29.73,17.79Z"/><path class="cls-3" d="M55.08,41.25L47.39,29.08l7.28-9.72a1,1,0,0,0,.18-1.09,1,1,0,0,0-.91-0.48H47a2.59,2.59,0,0,0-1.88,1L41,24.1v-5a1.27,1.27,0,0,0-1.27-1.27H33.27A1.27,1.27,0,0,0,32,19.06V41.52a1.27,1.27,0,0,0,1.27,1.27h6.46A1.27,1.27,0,0,0,41,41.52V34.76l4.44,7a2.32,2.32,0,0,0,1.81,1h7a1,1,0,0,0,.93-0.48A1,1,0,0,0,55.08,41.25Z"/><path class="cls-1" d="M80.62,27.9V18.51h3.54l2.13,6.4,2.1-6.4h3.55V27.9h-2.2V20.51L87.41,27.9H85.14l-2.32-7.39V27.9h-2.2Z"/><path class="cls-4" d="M166.4,27.9V18.51h3.54l2.13,6.4,2.1-6.4h3.55V27.9h-2.2V20.51l-2.33,7.39h-2.28l-2.32-7.39V27.9h-2.2Z"/><path class="cls-1" d="M93.93,27.9V18.51h7.2V20.1H96v2.08h4.74v1.58H96v2.56h5.32V27.9H93.93Z"/><path class="cls-1" d="M112.26,27.9V18.51h7.2V20.1h-5.12v2.08h4.74v1.58h-4.74v2.56h5.32V27.9h-7.39Z"/><path class="cls-4" d="M200.41,27.9V18.51h7.2V20.1h-5.12v2.08h4.74v1.58h-4.74v2.56h5.32V27.9h-7.39Z"/><path class="cls-1" d="M102.69,18.51H110v1.58h-5.36v2.18h2.65a5.52,5.52,0,0,1,1.82.26,2.62,2.62,0,0,1,1.24.95,2.83,2.83,0,0,1,0,3.25,2.68,2.68,0,0,1-1.18.93,5.53,5.53,0,0,1-1.88.25h-4.64V18.51Zm2,7.81h1.93a6.63,6.63,0,0,0,1.3-.09,1.25,1.25,0,0,0,.65-0.39,1.09,1.09,0,0,0,.28-0.76,1,1,0,0,0-.49-1,3.36,3.36,0,0,0-1.66-.3h-2v2.48Z"/><path class="cls-1" d="M122,18.51h7.19V27.9h-2.07V20.1H124v4a15.36,15.36,0,0,1-.13,2.4,1.68,1.68,0,0,1-.61,1.06,2.47,2.47,0,0,1-1.52.38q-0.36,0-1.32-.06V26.43h0.46a1.64,1.64,0,0,0,.88-0.16,1,1,0,0,0,.22-0.79v-7Z"/><path class="cls-1" d="M131.57,18.51h2.07v3.75h2.77a4,4,0,0,1,2.84.84,2.68,2.68,0,0,1,.88,2,2.55,2.55,0,0,1-.53,1.63,2.7,2.7,0,0,1-1.22.91,6.24,6.24,0,0,1-2,.24h-4.85V18.51Zm2.07,7.81h2a7.11,7.11,0,0,0,1.36-.09,1.35,1.35,0,0,0,.68-0.39,1,1,0,0,0,.3-0.76,1,1,0,0,0-.51-0.95,3.62,3.62,0,0,0-1.73-.3h-2.11v2.48Z"/><path class="cls-4" d="M145.38,18.51h2.36v4a1.81,1.81,0,0,0,1.07-.33,6.22,6.22,0,0,0,.86-1.46,4,4,0,0,1,1.47-1.9,5.54,5.54,0,0,1,2.36-.37h0.34v1.4H153.5a2.85,2.85,0,0,0-1.06.14,1.25,1.25,0,0,0-.54.44,8.43,8.43,0,0,0-.61,1.21,3.94,3.94,0,0,1-.47.81,2.31,2.31,0,0,1-.89.61,2.51,2.51,0,0,1,1.3.72,9.69,9.69,0,0,1,1.13,1.54L154,27.9h-2.77l-1.39-2.43-0.13-.2-0.29-.44a2.91,2.91,0,0,0-.74-0.86,1.82,1.82,0,0,0-.89-0.18V27.9h-2.36V18.51Z"/><path class="cls-4" d="M155.47,23.26a5.8,5.8,0,0,1,.44-2.41,4.42,4.42,0,0,1,.9-1.29,3.78,3.78,0,0,1,1.25-.85,5.47,5.47,0,0,1,2.09-.37,4.63,4.63,0,0,1,3.43,1.29,4.84,4.84,0,0,1,1.29,3.58,4.82,4.82,0,0,1-1.28,3.56,5.22,5.22,0,0,1-6.85,0A4.76,4.76,0,0,1,155.47,23.26Zm2-.06a3.44,3.44,0,0,0,.76,2.42,2.67,2.67,0,0,0,3.85,0,3.51,3.51,0,0,0,.75-2.45,3.46,3.46,0,0,0-.73-2.41,2.77,2.77,0,0,0-3.89,0A3.47,3.47,0,0,0,157.49,23.2Z"/><path class="cls-4" d="M179.77,18.51h8.17V27.9h-2.07V20.09h-4V27.9h-2.07V18.51Z"/><path class="cls-4" d="M191,18.51h7.19V27.9h-2.07V20.1H193v4a15.36,15.36,0,0,1-.13,2.4,1.68,1.68,0,0,1-.61,1.06,2.47,2.47,0,0,1-1.52.38q-0.36,0-1.32-.06V26.43h0.46a1.64,1.64,0,0,0,.88-0.16,1,1,0,0,0,.22-0.79v-7Z"/><path class="cls-4" d="M209.45,18.51h2.07v4a1.47,1.47,0,0,0,.94-0.33,6.43,6.43,0,0,0,.76-1.46,3.93,3.93,0,0,1,1.3-1.9,4.36,4.36,0,0,1,2.08-.37h0.3v1.4H216.6a2.24,2.24,0,0,0-.93.14,1.14,1.14,0,0,0-.48.44,8.91,8.91,0,0,0-.54,1.21,4.1,4.1,0,0,1-.41.81,2.06,2.06,0,0,1-.78.61,2.15,2.15,0,0,1,1.15.72,9.72,9.72,0,0,1,1,1.54L217,27.9h-2.44l-1.23-2.43-0.12-.2L213,24.83A2.83,2.83,0,0,0,212.3,24a1.44,1.44,0,0,0-.78-0.18V27.9h-2.07V18.51Z"/><path class="cls-4" d="M222,27.9V20.1h-3V18.51h8.16V20.1h-3v7.8H222Z"/><path class="cls-4" d="M80.77,34.76a11.32,11.32,0,0,1,1.8-.14,3.06,3.06,0,0,1,2,.58,1.86,1.86,0,0,1,.64,1.47,2,2,0,0,1-.56,1.5,3.08,3.08,0,0,1-2.23.77,3.35,3.35,0,0,1-.76-0.06V41.7H80.77V34.76Zm0.94,3.39a3.29,3.29,0,0,0,.78.07c1.13,0,1.83-.53,1.83-1.5s-0.68-1.38-1.72-1.38a4.06,4.06,0,0,0-.89.07v2.73Z"/><path class="cls-4" d="M86.54,39.35a1.65,1.65,0,0,0,1.79,1.75,3.55,3.55,0,0,0,1.45-.26l0.16,0.66a4.37,4.37,0,0,1-1.74.31,2.38,2.38,0,0,1-2.57-2.54,2.48,2.48,0,0,1,2.45-2.72,2.16,2.16,0,0,1,2.16,2.38,3.36,3.36,0,0,1,0,.43H86.54Zm2.79-.66A1.32,1.32,0,0,0,88,37.2a1.54,1.54,0,0,0-1.46,1.49h2.78Z"/><path class="cls-4" d="M92.16,36.66V41H94V36.66h0.93V41h1.83V36.66h0.94v5H91.23v-5h0.93Z"/><path class="cls-4" d="M99.58,39.35a1.65,1.65,0,0,0,1.79,1.75,3.55,3.55,0,0,0,1.45-.26L103,41.5a4.37,4.37,0,0,1-1.74.31,2.38,2.38,0,0,1-2.57-2.54,2.48,2.48,0,0,1,2.45-2.72,2.16,2.16,0,0,1,2.16,2.38,3.36,3.36,0,0,1,0,.43H99.58Zm2.79-.66A1.32,1.32,0,0,0,101,37.2a1.54,1.54,0,0,0-1.46,1.49h2.78Z"/><path class="cls-4" d="M105.21,36.66v2h2.48v-2h0.94v5h-0.94V39.42h-2.48V41.7h-0.94v-5h0.94Z"/><path class="cls-4" d="M110.89,36.66v2.13c0,0.8,0,1.3-.05,2h0c0.31-.62.5-1,0.84-1.55l1.63-2.61h1.11v5h-0.91V39.57c0-.82,0-1.25.06-2.06h0c-0.33.65-.56,1.05-0.86,1.56-0.5.78-1.07,1.75-1.63,2.64H110v-5h0.9Z"/><path class="cls-4" d="M119.68,41.7h-0.94V39.59H118a1.26,1.26,0,0,0-.87.28,3.44,3.44,0,0,0-.73,1.42,3.07,3.07,0,0,1-.22.42h-1a3.24,3.24,0,0,0,.32-0.57,3.83,3.83,0,0,1,.82-1.52,1.26,1.26,0,0,1,.59-0.29v0A1.37,1.37,0,0,1,115.55,38a1.21,1.21,0,0,1,.69-1.09A3.78,3.78,0,0,1,118,36.6a15.06,15.06,0,0,1,1.69.1v5Zm-0.94-4.44a5.49,5.49,0,0,0-.79-0.05c-0.65,0-1.42.18-1.42,0.88s0.83,0.88,1.39.88h0.81v-1.7Z"/><path class="cls-4" d="M127.22,36.66V41h0.54l-0.05,2.28H127l0-1.6H123.3l0,1.6h-0.75l0-2.28h0.44a3.86,3.86,0,0,0,.52-1,6.44,6.44,0,0,0,.3-2V36.66h3.49Zm-2.65,1.53a6.47,6.47,0,0,1-.27,1.88,4.71,4.71,0,0,1-.42.94h2.41V37.36h-1.72v0.83Z"/><path class="cls-4" d="M132.74,36.66v5H131.8V37.38H130v1.31c0,1.42-.14,2.37-0.82,2.79a1.56,1.56,0,0,1-1,.31l-0.1-.72a1.2,1.2,0,0,0,.52-0.21c0.49-.34.54-1.05,0.54-2.18v-2h3.63Z"/><path class="cls-4" d="M138,41.7H137V39.59h-0.7a1.26,1.26,0,0,0-.87.28,3.44,3.44,0,0,0-.73,1.42,3.07,3.07,0,0,1-.22.42h-1a3.24,3.24,0,0,0,.32-0.57,3.83,3.83,0,0,1,.82-1.52,1.26,1.26,0,0,1,.59-0.29v0A1.37,1.37,0,0,1,133.85,38a1.21,1.21,0,0,1,.69-1.09,3.78,3.78,0,0,1,1.75-.34,15.06,15.06,0,0,1,1.69.1v5ZM137,37.26a5.49,5.49,0,0,0-.79-0.05c-0.65,0-1.42.18-1.42,0.88s0.83,0.88,1.39.88H137v-1.7Z"/><path class="cls-4" d="M141.45,36.72a11.54,11.54,0,0,1,1.66-.11c0.88,0,2.32.14,2.32,1.26A1.21,1.21,0,0,1,144.34,39v0a1.31,1.31,0,0,1,1.33,1.25c0,1.32-1.73,1.49-2.75,1.49-0.58,0-1.19,0-1.47-.06v-5Zm0.9,4.38a6,6,0,0,0,.77,0c0.64,0,1.59-.15,1.59-0.87s-0.76-.89-1.66-0.89h-0.69V41.1Zm0-2.32h0.71c0.7,0,1.43-.2,1.43-0.79s-0.45-.74-1.4-0.74a7.08,7.08,0,0,0-.73,0v1.49Z"/><path class="cls-4" d="M149.59,41.7l-0.08-.64h0a2,2,0,0,1-1.6.75,1.47,1.47,0,0,1-1.6-1.45c0-1.22,1.12-1.89,3.14-1.88v-0.1a1.06,1.06,0,0,0-1.19-1.17,2.67,2.67,0,0,0-1.36.38l-0.22-.6a3.33,3.33,0,0,1,1.72-.45,1.82,1.82,0,0,1,2,2.06v1.89a6.84,6.84,0,0,0,.09,1.21h-0.86Zm-0.14-2.57c-1,0-2.21.16-2.21,1.14a0.83,0.83,0,0,0,.9.88,1.3,1.3,0,0,0,1.26-.84,0.92,0.92,0,0,0,.05-0.29V39.13Z"/><path class="cls-4" d="M152.64,36.66V41h1.83V36.66h0.93V41h1.83V36.66h0.94v5h-6.45v-5h0.93Z"/><path class="cls-4" d="M160.06,39.35a1.65,1.65,0,0,0,1.79,1.75,3.55,3.55,0,0,0,1.45-.26l0.16,0.66a4.37,4.37,0,0,1-1.74.31,2.38,2.38,0,0,1-2.57-2.54,2.48,2.48,0,0,1,2.45-2.72,2.16,2.16,0,0,1,2.16,2.38,3.36,3.36,0,0,1,0,.43h-3.67Zm2.79-.66a1.32,1.32,0,0,0-1.32-1.49,1.54,1.54,0,0,0-1.46,1.49h2.78Z"/><path class="cls-4" d="M165.64,36.66v2.13c0,0.8,0,1.3-.05,2h0c0.31-.62.5-1,0.84-1.55l1.63-2.61h1.11v5H168.3V39.57c0-.82,0-1.25.06-2.06h0c-0.33.65-.56,1.05-0.86,1.56-0.5.78-1.07,1.75-1.63,2.64h-1.09v-5h0.9Zm0.62-2.05a0.73,0.73,0,0,0,.69.79,0.75,0.75,0,0,0,.73-0.79h0.68a1.29,1.29,0,0,1-1.44,1.29,1.24,1.24,0,0,1-1.36-1.29h0.69Z"/><path class="cls-4" d="M172.75,36.66h1.17l1,2.54c0.13,0.38.36,1,.48,1.39h0c0.12-.37.41-1.18,0.62-1.73l0.84-2.2H178l0.37,5h-0.91l-0.12-2.41c0-.54-0.08-1.19-0.1-1.8h0c-0.14.46-.28,0.87-0.57,1.64l-1,2.54h-0.69L174,39.18c-0.16-.48-0.39-1.21-0.52-1.68h0c0,0.59-.05,1.26-0.09,1.81l-0.13,2.39h-0.87Z"/><path class="cls-4" d="M180,39.35a1.65,1.65,0,0,0,1.79,1.75,3.55,3.55,0,0,0,1.45-.26l0.16,0.66a4.37,4.37,0,0,1-1.74.31A2.38,2.38,0,0,1,179,39.27a2.48,2.48,0,0,1,2.45-2.72,2.16,2.16,0,0,1,2.16,2.38,3.36,3.36,0,0,1,0,.43H180Zm2.79-.66a1.32,1.32,0,0,0-1.32-1.49A1.54,1.54,0,0,0,180,38.69h2.78Z"/><path class="cls-4" d="M188.67,35a7.37,7.37,0,0,1-1.09.23,2.59,2.59,0,0,0-1.86.95,3.52,3.52,0,0,0-.57,1.67h0A2,2,0,0,1,187,36.66a2.21,2.21,0,0,1,2.23,2.49c0,1.65-.89,2.67-2.42,2.67-1.84,0-2.44-1.7-2.44-3.38a4.37,4.37,0,0,1,.81-2.79,3.17,3.17,0,0,1,2.25-1.19,7.86,7.86,0,0,0,1.3-.27Zm-1.87,2.39a1.28,1.28,0,0,0-1.18.69,2.14,2.14,0,0,0-.26,1.07c0,0.83.42,2,1.46,2s1.44-1,1.44-1.91A1.62,1.62,0,0,0,186.8,37.34Z"/><path class="cls-4" d="M190.77,39.35a1.65,1.65,0,0,0,1.79,1.75,3.55,3.55,0,0,0,1.45-.26l0.16,0.66a4.37,4.37,0,0,1-1.74.31,2.38,2.38,0,0,1-2.57-2.54,2.48,2.48,0,0,1,2.45-2.72,2.16,2.16,0,0,1,2.16,2.38,3.36,3.36,0,0,1,0,.43h-3.67Zm2.79-.66a1.32,1.32,0,0,0-1.32-1.49,1.54,1.54,0,0,0-1.46,1.49h2.78Z"/><path class="cls-4" d="M199.46,36.66v5h-0.94V37.38h-1.79v1.31c0,1.42-.14,2.37-0.82,2.79a1.56,1.56,0,0,1-1,.31l-0.1-.72a1.2,1.2,0,0,0,.52-0.21c0.49-.34.54-1.05,0.54-2.18v-2h3.63Z"/><path class="cls-4" d="M201.72,36.66v2.13c0,0.8,0,1.3-.05,2h0c0.31-.62.5-1,0.84-1.55l1.63-2.61h1.11v5h-0.91V39.57c0-.82,0-1.25.06-2.06h0c-0.33.65-.56,1.05-0.86,1.56-0.5.78-1.07,1.75-1.63,2.64h-1.09v-5h0.9Z"/><rect class="cls-5" x="1" y="18.04" width="7.5" height="24" rx="0.77" ry="0.77"/><rect class="cls-5" x="22.67" y="18.04" width="7.5" height="24" rx="0.77" ry="0.77"/><rect class="cls-5" x="32.29" y="18.04" width="7.5" height="24" rx="0.77" ry="0.77"/><path class="cls-5" d="M16.37,42H13.13a1.1,1.1,0,0,1-1-.77L5.86,18.81A0.56,0.56,0,0,1,6.41,18h6a1.1,1.1,0,0,1,1,.77l4.08,14.56Z"/><path class="cls-5" d="M15.29,42h2.83a1.1,1.1,0,0,0,1-.77l6.29-22.46A0.56,0.56,0,0,0,24.84,18h-6a1.1,1.1,0,0,0-1,.77l-5,17.94Z"/><path class="cls-5" d="M44.7,31.58l9.56-12.77c0.32-.43.17-0.77-0.33-0.77H47a2.1,2.1,0,0,0-1.48.77l-7,9.19Z"/><path class="cls-5" d="M45.28,26.42l9.38,14.85a0.46,0.46,0,0,1-.42.77h-7a1.83,1.83,0,0,1-1.39-.77l-6.07-9.62Z"/><rect class="cls-5" x="37.63" y="28.25" width="5.21" height="3.29"/><ellipse class="cls-6" cx="40.04" cy="18.51" rx="13.63" ry="8.25"/><path class="cls-5" d="M20.62,15.82l-2.88-2.36,0.71-.87,2.39,1.09L19.3,11.55,20,10.68,22.89,13l-0.44.54-2.27-1.85L22,14.15l-0.46.56-2.73-1.28,2.27,1.85Z"/><path class="cls-5" d="M23.3,12.66L20.83,9.88,22.89,8l0.42,0.47-1.5,1.33,0.55,0.62,1.4-1.24L24.17,9.7l-1.4,1.24,0.67,0.76L25,10.32l0.42,0.47Z"/><path class="cls-5" d="M23.73,7.4l2.32-1.53L26.4,6.39,24.7,7.51l0.47,0.72L26,7.68a2,2,0,0,1,.63-0.29,1,1,0,0,1,.6.06,1.08,1.08,0,0,1,.52.43,1.07,1.07,0,0,1,.19.65,1,1,0,0,1-.17.55,2,2,0,0,1-.54.47l-1.47,1Zm2.33,2.17,0.61-.4a2.48,2.48,0,0,0,.39-0.3,0.46,0.46,0,0,0,.12-0.27,0.44,0.44,0,0,0-.08-0.31,0.41,0.41,0,0,0-.36-0.21,1.21,1.21,0,0,0-.59.25l-0.64.42Z"/><path class="cls-5" d="M28.74,8.62L27.16,5.25l2.5-1.17,0.27,0.57-1.82.85,0.35,0.75,1.69-.79L30.42,6l-1.69.79,0.43,0.92L31,6.85,31.3,7.42Z"/><path class="cls-5" d="M30.9,3.62l2.49-.76,1.08,3.56-0.72.22-0.9-3L31.79,4l0.46,1.52a6.67,6.67,0,0,1,.23.93,0.68,0.68,0,0,1-.09.47,0.84,0.84,0,0,1-.48.3l-0.47.12-0.17-.56,0.16,0a0.55,0.55,0,0,0,.29-0.15,0.41,0.41,0,0,0,0-.32l-0.19-.61Z"/><path class="cls-5" d="M34.51,2.61l0.74-.11L35.47,4l1-.14A1.38,1.38,0,0,1,37.53,4a1.11,1.11,0,0,1,.43.74,1.07,1.07,0,0,1-.1.67,1,1,0,0,1-.38.42,2.1,2.1,0,0,1-.69.2L35,6.29Zm1.19,3,0.72-.11a2.38,2.38,0,0,0,.48-0.1,0.49,0.49,0,0,0,.22-0.19,0.44,0.44,0,0,0,.06-0.31A0.42,0.42,0,0,0,37,4.51a1.22,1.22,0,0,0-.64,0l-0.76.11Z"/><path class="cls-5" d="M38.54,5.82l0-3.72h0.75V3.57h1.47V2.12h0.75l0,3.72H40.77V4.21H39.31V5.83H38.54Z"/><path class="cls-5" d="M45.42,6.42l-0.81-.13-0.19-.89L43,5.17,42.52,6l-0.79-.13,2-3.45,0.78,0.13ZM44.28,4.75L44,3.3,43.28,4.59Z"/><path class="cls-5" d="M47.7,7.16l0.47-1.48L48,5.63a0.88,0.88,0,0,0-.51,0,3.09,3.09,0,0,0-.67.46l-0.76.61-0.86-.27,0.65-.55a4.53,4.53,0,0,1,.59-0.45A1.64,1.64,0,0,1,47,5.2a1.16,1.16,0,0,1-.61-0.57,1,1,0,0,1,0-.71,1.08,1.08,0,0,1,.35-0.52,0.83,0.83,0,0,1,.54-0.2,2.9,2.9,0,0,1,.83.17l1.51,0.48L48.42,7.39Zm0.94-2.95L48.08,4a5.23,5.23,0,0,0-.57-0.16,0.38,0.38,0,0,0-.27.06,0.44,0.44,0,0,0-.19.26,0.47,0.47,0,0,0,0,.33,0.41,0.41,0,0,0,.19.21,4.13,4.13,0,0,0,.58.21l0.53,0.17Z"/><path class="cls-5" d="M52.3,8.87l-0.22.37-0.64-.37,0.22-.37a1.72,1.72,0,0,1-.86-1A1.46,1.46,0,0,1,51,6.41a1.41,1.41,0,0,1,.85-0.7A1.79,1.79,0,0,1,53.14,6l0.19-.32L54,6l-0.19.32a1.74,1.74,0,0,1,.86,1,1.45,1.45,0,0,1-.2,1.07,1.46,1.46,0,0,1-.83.69A1.74,1.74,0,0,1,52.3,8.87ZM52,8l0.84-1.43a0.94,0.94,0,0,0-.7-0.16,0.87,0.87,0,0,0-.51.45A0.76,0.76,0,0,0,52,8Zm0.64,0.37a1.16,1.16,0,0,0,.49.17,0.61,0.61,0,0,0,.39-0.08A1.08,1.08,0,0,0,53.82,8a0.76,0.76,0,0,0-.37-1.15Z"/><path class="cls-5" d="M55.64,7.08L56.3,7.61l-0.53,2,1.79-1L58.17,9.1l-2.75,1.42a2.75,2.75,0,0,1-.76.28,0.7,0.7,0,0,1-.58-0.16,2.46,2.46,0,0,1-.38-0.36L54,9.85,54.26,10a0.58,0.58,0,0,0,.35.16A0.94,0.94,0,0,0,55,10Z"/><path class="cls-5" d="M56,12.14l2.7-2.56,0.83,0.88a4.31,4.31,0,0,1,.57.69,1,1,0,0,1,.1.64,1.16,1.16,0,0,1-.38.66,1.21,1.21,0,0,1-.5.31,1,1,0,0,1-.48,0,1.09,1.09,0,0,1-.4-0.16,4.33,4.33,0,0,1-.58-0.53l-0.34-.35-1,1Zm2.76-1.58-0.77.73,0.28,0.3a1.94,1.94,0,0,0,.45.39A0.49,0.49,0,0,0,59,12a0.5,0.5,0,0,0,.27-0.14,0.48,0.48,0,0,0,.16-0.32,0.52,0.52,0,0,0-.09-0.33A3.64,3.64,0,0,0,59,10.82Z"/><path class="cls-5" d="M58.2,14.55l3-2.14L61.67,13l-1.2.84,0.85,1.2,1.2-.84L63,14.85l-3,2.14-0.43-.61,1.33-.94L60,14.23l-1.33.94Z"/><path class="cls-5" d="M63.53,15.82l0.32,0.63-2.22,1.11,2.89,0.24,0.33,0.67-3.33,1.67-0.31-.63,2.17-1.09-2.85-.26-0.34-.67Z"/><path class="cls-5" d="M62,21.48l2.93-1-0.35-1,0.6-.2L66.12,22l-0.6.2-0.35-1-2.93,1Z"/><path class="cls-5" d="M66.23,22.41l0.16,0.82-1.73,1.23,2,0.35,0.15,0.77-3-.68a2.74,2.74,0,0,1-.77-0.28,0.7,0.7,0,0,1-.34-0.49,2.43,2.43,0,0,1-.06-0.52l0.55-.11c0,0.11,0,.2,0,0.29a0.59,0.59,0,0,0,.17.35,1,1,0,0,0,.44.13Z"/><path class="cls-5" d="M63.21,26.51l3.71-.22L67,27.49a4.33,4.33,0,0,1,0,.9,1,1,0,0,1-.33.56,1.15,1.15,0,0,1-.71.26,1.22,1.22,0,0,1-.58-0.09A1,1,0,0,1,65,28.82a1.09,1.09,0,0,1-.2-0.38,4.22,4.22,0,0,1-.1-0.78l0-.49-1.4.08Zm3.13,0.57-1.05.06,0,0.41a2,2,0,0,0,.09.59,0.49,0.49,0,0,0,.49.29,0.48,0.48,0,0,0,.33-0.14A0.51,0.51,0,0,0,66.37,28a3.54,3.54,0,0,0,0-.54Z"/><path class="cls-5" d="M63.16,32.68l0.06-.82,0.86-.27,0.1-1.48-0.82-.36,0.05-.8L67,30.65,67,31.44Zm1.56-1.28L66.13,31l-1.34-.59Z"/><path class="cls-5" d="M66.44,35.18l-0.19.68-2.39-.67,2,2.12-0.2.72-3.58-1,0.19-.68L64.59,37l-1.93-2.1,0.2-.72Z"/><path class="cls-5" d="M64.67,40.47l-0.34.67-1.41-.71a0.5,0.5,0,0,0,0,.36,2.68,2.68,0,0,0,.39.51,1.56,1.56,0,0,1,.46.76,1.47,1.47,0,0,1-.21.74l0,0.1L63,42.64,63,42.55a0.76,0.76,0,0,0,.1-0.33A0.43,0.43,0,0,0,63.05,42a3.73,3.73,0,0,0-.34-0.39,1.74,1.74,0,0,1-.22-0.28A0.76,0.76,0,0,1,62.4,41a0.78,0.78,0,0,1-.44.24,3.84,3.84,0,0,1-.71,0H60.11l0.4-.79,1.06,0h0.29a1.13,1.13,0,0,0,.41-0.06,0.49,0.49,0,0,0,.19-0.22L61,39.46l0.34-.67Z"/><path class="cls-5" d="M61.59,42.37a2.36,2.36,0,0,1,.68.69,1.75,1.75,0,0,1,.22.58,1.44,1.44,0,0,1,0,.59,2,2,0,0,1-.34.74,1.75,1.75,0,0,1-1.18.78,2.28,2.28,0,0,1-2.31-1.63A1.74,1.74,0,0,1,59,42.75,1.76,1.76,0,0,1,60.17,42,1.93,1.93,0,0,1,61.59,42.37ZM61.17,43a1.4,1.4,0,0,0-1-.31,1,1,0,0,0-.85,1.21,1.42,1.42,0,0,0,.63.79,1.4,1.4,0,0,0,.94.32,1,1,0,0,0,.86-1.22A1.41,1.41,0,0,0,61.17,43Z"/><path class="cls-5" d="M57.76,44.56l2.63,2.63L59.6,48l-2.27-1.32,1.32,2.27-0.8.8L55.22,47.1l0.49-.49,2.07,2.07-1.55-2.59,0.51-.51,2.59,1.55-2.07-2.07Z"/><path class="cls-5" d="M57,50.44l-2.4,1.73-2.17-3L53,48.71l1.81,2.51L56,50.37,54.2,47.86l0.61-.44Z"/><path class="cls-5" d="M53.38,52.87l-2.32,1.2-1.71-3.31L50,50.42l1.42,2.75,1-.51-0.73-1.41a6.67,6.67,0,0,1-.4-0.87,0.68,0.68,0,0,1,0-.48,0.83,0.83,0,0,1,.42-0.39l0.44-.2,0.27,0.52-0.15.07a0.55,0.55,0,0,0-.25.2,0.41,0.41,0,0,0,.07.32L52.41,51Z"/><path class="cls-5" d="M48.83,51L50,54.5l-2.61.9-0.21-.59,1.9-.66-0.27-.78L47.1,54l-0.21-.59,1.77-.61-0.33-1-2,.68-0.21-.59Z"/><path class="cls-5" d="M46.43,55.67l-0.74.15-0.31-1.55a0.51,0.51,0,0,0-.31.19,2.69,2.69,0,0,0-.15.62,1.57,1.57,0,0,1-.31.83,1.45,1.45,0,0,1-.71.29l-0.11,0-0.11-.54,0.1,0a0.75,0.75,0,0,0,.32-0.12,0.45,0.45,0,0,0,.13-0.21,3.93,3.93,0,0,0,.1-0.51,1.68,1.68,0,0,1,.08-0.35,0.76,0.76,0,0,1,.23-0.29,0.77,0.77,0,0,1-.46-0.2,3.91,3.91,0,0,1-.47-0.53l-0.7-.9,0.87-.17,0.63,0.85,0.06,0.07,0.13,0.15a1.12,1.12,0,0,0,.3.29,0.48,0.48,0,0,0,.29,0L45,52.17,45.69,52Z"/><path class="cls-5" d="M41.8,52.64L42,55.72l1.1-.07,0,0.63-3,.19,0-.63,1.1-.07-0.2-3.08Z"/><path class="cls-5" d="M39.79,56.48l-0.84-.05-0.74-2-0.86,1.88-0.78,0L38,53.53a2.79,2.79,0,0,1,.46-0.67,0.71,0.71,0,0,1,.56-0.2,2.52,2.52,0,0,1,.52.08l0,0.56-0.29,0a0.58,0.58,0,0,0-.38.07,1,1,0,0,0-.24.39Z"/><path class="cls-5" d="M35.74,56.21L35,56l0.37-1.51-0.59-.14a2,2,0,0,1-.74,1,1.56,1.56,0,0,1-1.29.17,1.58,1.58,0,0,1-1.07-.77,2,2,0,0,1-.11-1.49,2.43,2.43,0,0,1,.44-1,1.54,1.54,0,0,1,.7-0.51,1.62,1.62,0,0,1,.93,0,1.85,1.85,0,0,1,.81.37,1.53,1.53,0,0,1,.42.68,1.94,1.94,0,0,1,.07.92l0.59,0.14,0.36-1.5,0.73,0.18ZM34.14,53.9a1.6,1.6,0,0,0,0-1,0.81,0.81,0,0,0-.59-0.49,0.78,0.78,0,0,0-.75.16,1.77,1.77,0,0,0-.46.92,1.38,1.38,0,0,0,0,1,0.87,0.87,0,0,0,.59.45,0.82,0.82,0,0,0,.71-0.14A1.51,1.51,0,0,0,34.14,53.9Z"/><path class="cls-5" d="M30,54.67l-0.68-.33,1.36-2.78-1-.47-1.35,2.79-0.67-.33,1.35-2.78-1-.49-1.35,2.79L26,52.73l1.36-2.78-0.3-.15,0.63-1.29,0.56,0.27-0.36.73,3.73,1.81Z"/><path class="cls-5" d="M24.93,52l-0.57-.42,1.47-2-2.68,1.1-0.6-.45,2.21-3,0.57,0.42-1.44,2,2.65-1.06L27.15,49Z"/><path class="cls-5" d="M24.35,46.87l-2.62,2.64-2-1.94,0.44-.44,1.42,1.41,0.58-.59L20.9,46.63l0.44-.44,1.32,1.32,0.71-.72L21.9,45.32l0.44-.45Z"/></svg>