<svg id="Layer_1" data-name="Layer 1" xmlns="http://www.w3.org/2000/svg" width="70.85" height="86.37" viewBox="0 0 70.85 86.37"><defs><style>.cls-1{fill:#f7931e;}</style></defs><title>time</title><path class="cls-1" d="M70.85,7.59V2.53A2.53,2.53,0,0,0,68.32,0H2.53A2.53,2.53,0,0,0,0,2.53V7.59a7.6,7.6,0,0,0,5.06,7.16V71.62A7.6,7.6,0,0,0,0,78.78v5.06a2.53,2.53,0,0,0,2.53,2.53H68.32a2.53,2.53,0,0,0,2.53-2.53V78.78a7.6,7.6,0,0,0-5.06-7.16V14.75a7.6,7.6,0,0,0,5.06-7.16h0ZM65.79,81.31H5.06V78.78a2.53,2.53,0,0,1,2.53-2.53H63.26a2.53,2.53,0,0,1,2.53,2.53v2.53ZM25.63,43.18A20.26,20.26,0,0,0,15.18,60.9V71.19H10.12v-56h5.06V25.47A20.26,20.26,0,0,0,25.63,43.18h0Zm19.58,0A20.26,20.26,0,0,0,55.67,25.47V15.18h5.06v56H55.67V60.9A20.26,20.26,0,0,0,45.21,43.18h0ZM35.42,56C29.49,56,24,59.23,20.24,64.55V60.9a15.21,15.21,0,0,1,12.65-15v2.32a2.53,2.53,0,1,0,5.06,0V45.93a15.21,15.21,0,0,1,12.65,15v3.65C46.84,59.23,41.36,56,35.42,56h0ZM48.56,71.19H22.29C25,65,30,61.07,35.42,61.07s10.44,4,13.13,10.12h0Zm-28-42.77,1.22-.91a11.68,11.68,0,0,1,6.08-2,11.72,11.72,0,0,1,6.08,2,16.8,16.8,0,0,0,9.1,3,16,16,0,0,0,7.26-1.91,15.18,15.18,0,0,1-29.75-.21h0Zm30.08-6.1L49.1,23.44a11.69,11.69,0,0,1-6.08,2,11.72,11.72,0,0,1-6.08-2,16.8,16.8,0,0,0-9.1-3,16.21,16.21,0,0,0-7.59,2.09V15.18H50.61v7.14Zm12.65-12.2H7.59A2.53,2.53,0,0,1,5.06,7.59V5.06H65.79V7.59a2.53,2.53,0,0,1-2.53,2.53h0Zm0,0"/></svg>